<svg id="visual" viewBox="0 0 900 600" width="900" height="600" xmlns="http://www.w3.org/2000/svg" xmlns:xlink="http://www.w3.org/1999/xlink" version="1.1"><g transform="translate(511.64250063162484 384.76133145078586)"><path d="M207.8 -339.3C285.8 -314.8 377.2 -292.6 413.3 -236.5C449.3 -180.3 430.2 -90.2 398.7 -18.2C367.2 53.8 323.5 107.7 261.2 118.5C199 129.3 118.2 97.1 71.6 111.9C25 126.6 12.5 188.3 -10.9 207.2C-34.3 226.1 -68.7 202.3 -149.8 207.4C-230.9 212.6 -358.8 246.8 -441.6 217.1C-524.5 187.3 -562.2 93.7 -555.3 4C-548.4 -85.7 -496.8 -171.3 -432.8 -233.7C-368.8 -296 -292.4 -335.1 -218.2 -361.9C-144 -388.7 -72 -403.4 -3.6 -397.2C64.8 -391 129.7 -363.9 207.8 -339.3" fill="#34d2f0"></path></g></svg>