<?xml version="1.0" standalone="no"?><svg xmlns="http://www.w3.org/2000/svg" viewBox="0 0 1440 320"><path fill="#34d2f0" fill-opacity="1" d="M0,128L21.8,154.7C43.6,181,87,235,131,250.7C174.5,267,218,245,262,240C305.5,235,349,245,393,229.3C436.4,213,480,171,524,181.3C567.3,192,611,256,655,245.3C698.2,235,742,149,785,122.7C829.1,96,873,128,916,122.7C960,117,1004,75,1047,64C1090.9,53,1135,75,1178,90.7C1221.8,107,1265,117,1309,133.3C1352.7,149,1396,171,1418,181.3L1440,192L1440,0L1418.2,0C1396.4,0,1353,0,1309,0C1265.5,0,1222,0,1178,0C1134.5,0,1091,0,1047,0C1003.6,0,960,0,916,0C872.7,0,829,0,785,0C741.8,0,698,0,655,0C610.9,0,567,0,524,0C480,0,436,0,393,0C349.1,0,305,0,262,0C218.2,0,175,0,131,0C87.3,0,44,0,22,0L0,0Z"></path></svg>