<?xml version="1.0" standalone="no"?><svg xmlns="http://www.w3.org/2000/svg" viewBox="0 0 1440 320"><path fill="#34d2f0" fill-opacity="1" d="M0,192L21.8,181.3C43.6,171,87,149,131,149.3C174.5,149,218,171,262,176C305.5,181,349,171,393,144C436.4,117,480,75,524,58.7C567.3,43,611,53,655,64C698.2,75,742,85,785,122.7C829.1,160,873,224,916,224C960,224,1004,160,1047,160C1090.9,160,1135,224,1178,218.7C1221.8,213,1265,139,1309,106.7C1352.7,75,1396,85,1418,90.7L1440,96L1440,320L1418.2,320C1396.4,320,1353,320,1309,320C1265.5,320,1222,320,1178,320C1134.5,320,1091,320,1047,320C1003.6,320,960,320,916,320C872.7,320,829,320,785,320C741.8,320,698,320,655,320C610.9,320,567,320,524,320C480,320,436,320,393,320C349.1,320,305,320,262,320C218.2,320,175,320,131,320C87.3,320,44,320,22,320L0,320Z"></path></svg>